# xmcd
#
# Track frame offsets:
#	150
#	12787
#	43151
#	72430
#	101683
#	122420
#	132524
#	143800
#	165166
#
# Disc length: 2712 seconds
#
# Revision: 18
# Processed by: cddbd v1.5.2PL0 Copyright (c) Steve Scherf et al.
# Submitted via: Jack! The Knife 20 Magnifico
#
DISCID=750a9609
DTITLE=Led Zeppelin - Led Zeppelin
DYEAR=1969
DGENRE=Hard Rock
TTITLE0=Good Times Bad Times
TTITLE1=Babe I'm Gonna Leave You
TTITLE2=You Shook Me
TTITLE3=Dazed And Confused
TTITLE4=Your Time Is Gonna Come
TTITLE5=Black Mountain Side
TTITLE6=Communication Breakdown
TTITLE7=I Can't Quit You Baby
TTITLE8=How Many More Times
EXTD=Jimmy Page
EXTT0=Bonham, Jones, Page
EXTT1=Bredon, Page, Plant
EXTT2=Willie Dixon, J. B. Lenoir
EXTT3=Jimmy Page
EXTT4=Jones, Page
EXTT5=Jimmy Page
EXTT6=Bonham, Jones, Page
EXTT7=Willie Dixon
EXTT8=Bonham, Jones, Page
PLAYORDER=
